<svg xmlns="http://www.w3.org/2000/svg" xmlns:xlink="http://www.w3.org/1999/xlink" viewBox="0 0 165 30"><path d="M159.2 7.3h-11.6v5.3H158c.9 0 1.7.8 1.7 1.7V16h-7.3c-3.2 0-5.8 2.6-5.8 5.8v2.4c0 3.2 2.6 5.8 5.8 5.8H165V13.1c0-3.2-2.6-5.8-5.8-5.8m.5 17.4h-6c-.9 0-1.7-.8-1.7-1.7 0-.9.8-1.7 1.7-1.7h6v3.4zM85.6 14.3v7h13.1V23c0 .9-.8 1.7-1.7 1.7H83L72.8 0h-9.7L50.8 30h6.8l3.6-8.7h13.6l3.6 8.7H97c3.9 0 7-3.1 7-7v-7H91v-1.7c0-.9.8-1.7 1.7-1.7H104V7.3H92.7c-3.9 0-7.1 3.1-7.1 7M63.3 16L68 4.7 72.6 16h-9.3zm76-8.7h-6c-3.9 0-7 3.1-7 7V23c0 3.9 3.1 7 7 7h11.4V0h-5.3v7.3zm0 17.4h-6c-.9 0-1.7-.8-1.7-1.7v-8.7c0-.9.8-1.7 1.7-1.7h6v12.1zM118.5 7.3h-11.6v5.3h10.4c.9 0 1.7.8 1.7 1.7V16h-7.3c-3.2 0-5.8 2.6-5.8 5.8v2.4c0 3.2 2.6 5.8 5.8 5.8h12.6V13.1c0-3.2-2.6-5.8-5.8-5.8m.5 17.4h-6c-.9 0-1.7-.8-1.7-1.7 0-.9.8-1.7 1.7-1.7h6v3.4z" fill="#e60012"/><defs><path id="a" d="M5.5 15c0-5.3 4.3-9.5 9.5-9.5 5.3 0 9.5 4.3 9.5 9.5 0 5.3-4.3 9.5-9.5 9.5-5.3 0-9.5-4.2-9.5-9.5M0 15c0 8.3 6.7 15 15 15s15-6.7 15-15S23.3 0 15 0 0 6.7 0 15"/></defs><clipPath id="b"><use xlink:href="#a" overflow="visible"/></clipPath><radialGradient id="c" cx="-196.571" cy="470.803" r="2.646" gradientTransform="matrix(11.3825 0 0 -11.3825 2263.38 5384.271)" gradientUnits="userSpaceOnUse"><stop offset="0" stop-color="#fff"/><stop offset=".5" stop-color="#3e3a39"/><stop offset="1" stop-color="#3e3a39"/></radialGradient><path clip-path="url(#b)" fill="url(#c)" d="M0 0h30v30H0z"/><defs><path id="d" d="M20.5 15c0-5.3 4.3-9.5 9.5-9.5s9.5 4.3 9.5 9.5-4.3 9.5-9.5 9.5-9.5-4.2-9.5-9.5M15 15c0 8.3 6.7 15 15 15s15-6.7 15-15S38.3 0 30 0 15 6.7 15 15"/></defs><clipPath id="e"><use xlink:href="#d" overflow="visible"/></clipPath><radialGradient id="f" cx="-230.497" cy="399.152" r="2.646" gradientTransform="matrix(-11.089 0 0 11.089 -2537.097 -4420.915)" gradientUnits="userSpaceOnUse"><stop offset="0" stop-color="#fff"/><stop offset=".5" stop-color="#3e3a39"/><stop offset="1" stop-color="#3e3a39"/></radialGradient><path clip-path="url(#e)" fill="url(#f)" d="M15 0h30v30H15z"/><defs><path id="g" d="M15.5 13.8c0-7.4 6-13.4 13.4-13.4s13.4 6 13.4 13.4-6 13.4-13.4 13.4-13.4-6-13.4-13.4M15 15c0 8.3 6.7 15 15 15s15-6.7 15-15S38.3 0 30 0 15 6.7 15 15"/></defs><clipPath id="h"><use xlink:href="#g" overflow="visible"/></clipPath><radialGradient id="i" cx="-284.912" cy="294.681" r="2.646" gradientTransform="matrix(-2.8065 0 0 2.8065 -761.428 -802.415)" gradientUnits="userSpaceOnUse"><stop offset="0" stop-color="#fff"/><stop offset="1" stop-color="#595757"/></radialGradient><path clip-path="url(#h)" fill="url(#i)" d="M15 0h30v30H15z"/><defs><path id="j" d="M17.8 5.9c2 .6 3.7 1.8 4.9 3.5 1.1-1.4 2.7-2.6 4.5-3.1-1.3-1.8-3-3.3-4.9-4.3-1.8.9-3.3 2.2-4.5 3.9"/></defs><clipPath id="k"><use xlink:href="#j" overflow="visible"/></clipPath><radialGradient id="l" cx="-196.572" cy="470.801" r="2.646" gradientTransform="matrix(11.3829 0 0 -11.3829 2263.466 5384.447)" gradientUnits="userSpaceOnUse"><stop offset="0" stop-color="#fff"/><stop offset=".5" stop-color="#3e3a39"/><stop offset="1" stop-color="#3e3a39"/></radialGradient><path clip-path="url(#k)" fill="url(#l)" d="M17.8 1.9h9.4v7.5h-9.4z"/><defs><path id="m" d="M0 15c0 8.3 6.7 15 15 15 2.7 0 5.3-.7 7.5-2h-.1c-1.9 1-4 1.6-6.3 1.6-7.4 0-13.4-6-13.4-13.4s6-13.4 13.4-13.4 13.4 6 13.4 13.4c0 2.9-1 5.7-2.6 7.9 1.9-2.5 3-5.6 3-9 0-8.3-6.7-15-15-15S0 6.7 0 15"/></defs><clipPath id="n"><use xlink:href="#m" overflow="visible"/></clipPath><radialGradient id="o" cx="-149.044" cy="581.573" r="2.646" gradientTransform="matrix(2.8064 0 0 -2.8064 425.12 1637.554)" gradientUnits="userSpaceOnUse"><stop offset="0" stop-color="#fff"/><stop offset="1" stop-color="#595757"/></radialGradient><path clip-path="url(#n)" fill="url(#o)" d="M0 0h30v30H0z"/><defs><path id="p" d="M6.3 6.3c-2.5 2.5-4 5.9-4 9.6 0 3.8 1.5 7.2 4 9.6 2.5 2.5 5.9 4 9.6 4 2.3 0 4.5-.6 6.5-1.6-1.9 1-4 1.6-6.3 1.6-3.7 0-7-1.5-9.5-3.9-2.4-2.4-3.9-5.8-3.9-9.5s1.5-7 3.9-9.4c2.4-2.4 5.8-3.9 9.5-3.9s7 1.5 9.4 3.9c2.4 2.4 3.9 5.8 3.9 9.4 0 2.9-1 5.7-2.6 7.9 1.7-2.3 2.7-5 2.7-8.1 0-3.8-1.5-7.2-4-9.6-2.5-2.5-5.9-4-9.6-4s-7.1 1.6-9.6 4"/></defs><clipPath id="q"><use xlink:href="#p" overflow="visible"/></clipPath><radialGradient id="r" cx="-263.357" cy="323.452" r="2.646" gradientTransform="matrix(-3.6235 0 0 3.6235 -947.883 -1165.46)" gradientUnits="userSpaceOnUse"><stop offset="0" stop-color="#fff"/><stop offset="1" stop-color="#888"/></radialGradient><path clip-path="url(#q)" fill="url(#r)" d="M2.4 2.4h27.2v27.2H2.4z"/><defs><path id="s" d="M22.5 2c.1 0 .1 0 0 0 1.9-1 4-1.6 6.3-1.6 3.7 0 7 1.5 9.5 3.9 2.4 2.4 3.9 5.8 3.9 9.4s-1.5 7-3.9 9.4c-2.4 2.4-5.8 3.9-9.5 3.9s-7-1.5-9.4-3.9c-2.4-2.4-3.9-5.8-3.9-9.4 0-2.9 1-5.7 2.6-7.9-1.7 2.3-2.6 5.1-2.6 8.1 0 3.8 1.5 7.2 4 9.6 2.5 2.5 5.9 4 9.6 4 3.8 0 7.2-1.5 9.6-4 2.5-2.5 4-5.9 4-9.6 0-3.8-1.5-7.2-4-9.6-2.5-2.5-5.9-4-9.6-4-2.4.1-4.6.7-6.6 1.7"/></defs><clipPath id="t"><use xlink:href="#s" overflow="visible"/></clipPath><radialGradient id="u" cx="-158.128" cy="545.649" r="2.646" gradientTransform="matrix(3.6236 0 0 -3.6236 611.607 2000.669)" gradientUnits="userSpaceOnUse"><stop offset="0" stop-color="#fff"/><stop offset="1" stop-color="#888"/></radialGradient><path clip-path="url(#t)" fill="url(#u)" d="M15.4.4h27.2v27.2H15.4z"/></svg>