<?xml version="1.0" encoding="utf-8"?>
<!-- Generator: Adobe Illustrator 23.0.4, SVG Export Plug-In . SVG Version: 6.00 Build 0)  -->
<svg version="1.1" id="レイヤー_1" xmlns="http://www.w3.org/2000/svg" xmlns:xlink="http://www.w3.org/1999/xlink" x="0px"
	 y="0px" viewBox="0 0 223.3 62.6" style="enable-background:new 0 0 223.3 62.6;" xml:space="preserve">
<style type="text/css">
	.st0{fill:#BB1126;}
	.st1{fill:#8DA2A8;}
	.st2{fill:#231815;}
</style>
<title>logo</title>
<g id="グループ化_79">
	<g id="グループ化_61">
		<g id="グループ化_52">
			<path id="パス_64" class="st0" d="M35.2,36.5h-5.7l-6-7.3v7.3h-4.7V20.9h4.7v7l5.7-7h5.1l-5.8,7.3L35.2,36.5z"/>
		</g>
		<g id="グループ化_53">
			<path id="パス_65" class="st0" d="M57.7,36.5h-4.8l-1.3-3.2h-6.8l-1.3,3.2h-4.8l6.9-15.6h5.2L57.7,36.5z M50.5,30.6l-2.3-5.7
				l-2.3,5.7L50.5,30.6z"/>
		</g>
		<g id="グループ化_54">
			<path id="パス_66" class="st0" d="M86.2,20.9l-6.8,15.8h-2.7l-4.1-9.2l-4.2,9.2h-2.8l-6.6-15.8H64l3.2,8.7l3.7-8.7h3.4l3.7,8.7
				l3.4-8.7H86.2z"/>
		</g>
		<g id="グループ化_55">
			<path id="パス_67" class="st0" d="M107,36.5h-4.8l-1.3-3.2h-6.8l-1.3,3.2h-4.8l6.9-15.6h5.2L107,36.5z M99.8,30.6l-2.3-5.7
				l-2.3,5.7H99.8z"/>
		</g>
		<g id="グループ化_56">
			<path id="パス_68" class="st0" d="M123,32c0,0.9-0.2,1.8-0.7,2.5c-0.5,0.7-1.3,1.3-2.1,1.6c-1,0.4-2,0.6-3.1,0.6
				c-0.3,0-0.7,0-1.2-0.1c-0.6-0.1-1.3-0.2-1.9-0.3c-0.8-0.2-1.6-0.5-2.4-0.8v-3.8c0.7,0.5,1.5,0.9,2.3,1.2c0.8,0.3,1.6,0.5,2.5,0.5
				c0.6,0.1,1.1-0.1,1.6-0.4c0.2-0.2,0.3-0.5,0.4-0.8c0-0.4-0.2-0.8-0.6-1.1c-0.6-0.4-1.1-0.7-1.8-0.9c-0.8-0.3-1.5-0.7-2.3-1.2
				c-0.6-0.4-1.2-1-1.6-1.6c-0.4-0.7-0.6-1.5-0.6-2.3c0-1.7,1-3.2,2.5-3.9c1-0.4,2-0.6,3.1-0.6c0.8,0,1.6,0.1,2.4,0.3
				c0.6,0.1,1.2,0.3,1.8,0.6c0.3,0.1,0.7,0.3,1,0.5v3.7c-0.7-0.5-1.4-0.9-2.1-1.2c-0.8-0.4-1.7-0.5-2.5-0.5c-0.5,0-0.9,0.1-1.3,0.3
				c-0.3,0.2-0.4,0.5-0.4,0.8c0,0.3,0.1,0.6,0.4,0.8c0.4,0.3,0.9,0.6,1.4,0.8c1,0.5,2,1,2.9,1.5c0.7,0.4,1.2,0.9,1.7,1.6
				C122.8,30.4,123,31.2,123,32z"/>
		</g>
		<g id="グループ化_57">
			<path id="パス_69" class="st0" d="M145.6,36.5h-4.7v-6.1h-7.1v6.1h-4.7V20.9h4.7v5.7h7.1v-5.7h4.7L145.6,36.5z"/>
		</g>
		<g id="グループ化_58">
			<path id="パス_70" class="st0" d="M157.2,36.5h-4.7V20.9h4.7V36.5z"/>
		</g>
		<g id="グループ化_59">
			<path id="パス_71" class="st0" d="M182.3,36.5h-4.7v-9.1l-4.3,5.2H173l-4.3-5.2v9.1h-4.6V20.9h4.3l4.8,5.9l4.8-5.9h4.3
				L182.3,36.5z"/>
		</g>
		<g id="グループ化_60">
			<path id="パス_72" class="st0" d="M206.4,36.5h-4.8l-1.3-3.2h-6.8l-1.3,3.2h-4.8l6.9-15.6h5.2L206.4,36.5z M199.2,30.6
				l-2.3-5.7l-2.3,5.7H199.2z"/>
		</g>
	</g>
	<g id="グループ化_62">
		<path id="パス_73" class="st1" d="M210.2,45.3H13.1c-4.6,0-8.3-3.7-8.3-8.3V19.9c0-4.5,3.7-8.2,8.2-8.3l91.1-3.4l1.6-1l-6.3-3.6
			l1.9-3.3l8.1,4.6l7.4-4.7l2.1,3.3L113.2,7l2,1.2l95,3.4c4.6,0,8.3,3.8,8.3,8.3V37C218.5,41.6,214.8,45.3,210.2,45.3z M13.1,15.5
			c-2.4,0-4.4,2-4.4,4.4V37c0,2.4,2,4.4,4.4,4.4h197.2c2.4,0,4.4-2,4.4-4.4V20c0-2.5-2-4.5-4.5-4.5h-0.1l-96-3.5l-4.6-2.6l-4.2,2.6
			L13.1,15.5z"/>
	</g>
	<g id="グループ化_78">
		<g id="グループ化_63">
			<path id="パス_74" class="st2" d="M32,56.9c0.2,0,0.3,0.1,0.4,0.3c0,0,0,0,0,0.1c0,0.3-0.2,0.3-0.6,0.4
				c-0.8,0.1-1.7,0.2-2.5,0.5c-0.9,0.3-1.5,1-1.6,1.9c0,0.5,0.4,1.6,2.2,1.6c0.6,0,0.7,0,0.7,0.3c0,0.4-0.3,0.4-0.5,0.4
				c-1.5,0-3.1-0.7-3.1-2.3c0-0.9,0.6-1.7,1.4-2c-0.6,0.1-3.6,0.8-3.8,0.8c-0.2,0-0.3-0.1-0.3-0.3c0,0,0,0,0,0
				c0-0.3,0.2-0.3,0.4-0.4c1.6-0.2,3.1-1,4.2-2.1c0.4-0.5,0.8-1,1.1-1.5c0.1-0.1,0.1-0.3,0.3-0.3c0.2,0,0.3,0.1,0.3,0.3c0,0,0,0,0,0
				c-0.7,1.4-1.8,2.5-3.2,3.1C29,57.3,30.5,57.1,32,56.9z M25.4,54.7c0-0.2,0.1-0.3,0.3-0.3c0.2,0,0.7,0.7,1.3,1.4
				c0.3,0.4,0.3,0.5,0.3,0.6c0,0.2-0.1,0.3-0.3,0.4c0,0,0,0,0,0c-0.1,0-0.3-0.1-0.3-0.2c-0.3-0.5-0.6-0.9-1-1.4
				C25.4,54.8,25.4,54.8,25.4,54.7L25.4,54.7z"/>
		</g>
		<g id="グループ化_64">
			<path id="パス_75" class="st2" d="M38.1,59.4c-0.2,0.2-0.3,0.5-0.3,0.7c0,1.2,2.3,1.2,2.8,1.2c0.9,0,1.9-0.1,2.7-0.4
				c0.1-0.1,0.2-0.1,0.4-0.1c0.2,0,0.4,0.2,0.4,0.4c0,0.2-0.1,0.3-0.3,0.4c-1,0.3-2,0.4-3,0.4c-1,0-1.9-0.1-2.8-0.5
				c-0.5-0.2-0.8-0.8-0.9-1.3c0-0.6,0.5-1.4,0.8-1.4c0.2,0,0.3,0.1,0.4,0.3C38.2,59.1,38.2,59.2,38.1,59.4z M39.3,55.6
				c-1.3,0-1.6,0-1.6-0.4c0-0.2,0.2-0.3,0.3-0.3c0,0,0,0,0,0c0.1,0,0.8,0.1,0.9,0.1c0.2,0,0.5,0,0.9,0c0.8,0,1.7-0.1,2.5-0.2
				c0.2,0,0.4-0.1,0.5-0.1c0.2,0,0.4,0.1,0.4,0.3c0,0,0,0,0,0.1c0,0.3-0.1,0.3-0.6,0.6c0,0-0.7,0.4-1.1,0.6
				c-0.1,0.1-0.2,0.2-0.4,0.2c-0.2,0-0.3-0.1-0.3-0.3c0,0,0,0,0,0c0-0.2,0.2-0.3,0.4-0.4c0.3-0.1,0.5-0.2,0.8-0.3
				C41.2,55.6,40.2,55.6,39.3,55.6z"/>
		</g>
		<g id="グループ化_65">
			<path id="パス_76" class="st2" d="M50,58.1c-0.3,0-0.6,0-0.6-0.3s0.3-0.3,0.6-0.3l2.8,0l0-1.1l-2.4,0c-0.3,0-0.5,0-0.5-0.3
				s0.3-0.3,0.5-0.3l2.4,0l0-0.8c0-0.2,0-0.5,0.3-0.5s0.3,0.3,0.3,0.5v0.8l1.7,0c0.2,0,0.5,0,0.5,0.3c0,0.3-0.3,0.3-0.5,0.3l-1.7,0
				l0,1.1l1.9,0c0.3,0,0.6,0,0.6,0.3S55.6,58,55.3,58l-1.9,0l0,1.6c0.6,0.2,1.2,0.6,1.8,1c0.3,0.3,0.7,0.6,0.7,0.8
				c0,0.2-0.1,0.4-0.3,0.4c0,0,0,0,0,0c-0.2,0-0.2,0-0.5-0.4c-0.4-0.5-1-0.9-1.6-1.1c0,0.8,0,2-1.8,2c-1.2,0-2-0.7-2-1.6
				c0-0.8,0.7-1.5,2-1.5c0.4,0,0.8,0.1,1.2,0.2l0-1.4L50,58.1z M51.6,59.9c-1,0-1.3,0.4-1.3,0.9c0,0.4,0.3,0.9,1.3,0.9
				c1.1,0,1.2-0.6,1.2-1.6C52.4,59.9,52,59.9,51.6,59.9z"/>
		</g>
		<g id="グループ化_66">
			<path id="パス_77" class="st2" d="M63.6,55.6c-0.3,0-2.1,0.3-2.2,0.3c-0.2,0-0.4-0.2-0.4-0.4v0c0-0.3,0.3-0.4,0.4-0.4
				c2.1-0.3,4.2-0.4,6.3-0.5c0.7,0,0.9,0,0.9,0.4c0,0.3-0.2,0.4-0.7,0.4c-0.9,0-1.7,0.3-2.4,0.8c-0.8,0.6-1.3,1.5-1.3,2.5
				c0,0.9,0.4,1.7,1.1,2.1c0.5,0.3,1,0.4,1.6,0.4c0.2,0,0.3,0.2,0.3,0.4c0,0.2-0.1,0.4-0.4,0.4c-1.8,0-3.2-1.5-3.3-3.3
				c0-0.9,0.4-1.9,1.1-2.5c0.4-0.4,0.8-0.7,1.3-0.9C65.2,55.4,64.4,55.5,63.6,55.6z M67.1,56.4c0-0.1,0.1-0.2,0.2-0.2
				c0.2,0,0.9,1.2,0.9,1.5c0,0.1-0.1,0.2-0.2,0.2c-0.1,0-0.2-0.1-0.2-0.2c-0.1-0.4-0.3-0.8-0.5-1.1C67.2,56.5,67.1,56.5,67.1,56.4z
				 M67.8,56.2c0-0.1,0.1-0.2,0.2-0.2c0,0,0,0,0,0c0.2,0,1,1.2,1,1.5c0,0.1-0.1,0.2-0.2,0.2c-0.2,0-0.2-0.1-0.3-0.2
				c-0.1-0.3-0.3-0.6-0.4-0.9C68,56.4,67.9,56.3,67.8,56.2L67.8,56.2z"/>
		</g>
		<g id="グループ化_67">
			<path id="パス_78" class="st2" d="M78.4,57.8c0,0.1-0.1,0.3-0.4,0.3c-0.2,0-0.3-0.1-0.3-0.3c0,0,0,0,0,0
				c0.1-0.3,0.1-0.6,0.2-0.9c0-0.2,0.1-0.4,0.1-0.6c-0.7,0.1-1.5,0.3-2.2,0.6c0.4,1.3,0.8,2.5,1,3.6c0.1,0.5,0.2,0.9,0.2,1.4
				c0,0.2-0.1,0.3-0.3,0.4c0,0,0,0-0.1,0c-0.3,0-0.3-0.2-0.4-0.7c-0.2-1.5-0.6-3-1.1-4.4c-0.2,0.1-0.8,0.3-1.2,0.5S73.5,58,73.4,58
				c-0.2,0-0.3-0.1-0.3-0.3c0,0,0,0,0,0c0-0.1,0.1-0.2,0.2-0.3c0.1,0,1.2-0.5,1.7-0.7c-0.2-0.5-0.4-1-0.6-1.5
				c-0.1-0.1-0.1-0.2-0.1-0.3c0-0.2,0.1-0.3,0.3-0.3c0,0,0,0,0,0c0.2,0,0.3,0.1,0.4,0.3c0.1,0.3,0.2,0.4,0.6,1.6
				c0.8-0.3,1.6-0.5,2.4-0.6c0-0.4,0-0.7,0-0.8c0-0.1,0-0.5,0-0.5c0-0.2,0.1-0.3,0.3-0.3c0,0,0,0,0,0c0.4,0,0.4,0.3,0.4,0.9
				c0,0.2,0,0.4,0,0.7c2.3-0.1,2.3,1.7,2.3,1.8c0,1.6-1.7,2.3-2.8,2.3c-0.2,0-0.5,0-0.5-0.4c0-0.3,0.3-0.3,0.4-0.3
				c1.6,0,2.2-0.9,2.2-1.5c0-0.1,0-1.4-1.7-1.3C78.6,56.9,78.5,57.4,78.4,57.8z"/>
		</g>
		<g id="グループ化_68">
			<path id="パス_79" class="st2" d="M90,57.2c2.3,0,2.9,1.5,2.9,2.3c0,1.4-1.4,2.7-3.3,2.7c-1.4,0-2.3-0.7-2.3-1.5
				c0-0.7,0.6-1.3,1.7-1.3c1.1-0.1,2.1,0.7,2.2,1.8c0.7-0.3,1.1-0.9,1.1-1.6c-0.1-1-1-1.8-2-1.8c0,0-0.1,0-0.1,0
				c-1.2,0-2.5,0.4-3.4,1.3c-0.4,0.3-0.4,0.4-0.6,0.4c-0.2,0-0.4-0.2-0.4-0.4c0,0,0,0,0,0c0-0.2,0.1-0.2,0.5-0.6
				c1.1-0.8,2.9-2.3,4.1-3c-1.1,0.2-2.3,0.3-3.4,0.3c-0.3,0-0.4-0.2-0.4-0.4c0-0.4,0.3-0.4,0.4-0.4c1.2,0,2.3,0,3.5-0.2
				c0.1,0,0.7-0.1,0.8-0.1c0.4,0,0.4,0.3,0.4,0.4c0,0.1,0,0.2-0.4,0.5c-0.7,0.4-0.8,0.5-1.6,1.1c-0.5,0.3-1.3,0.9-1.4,1
				C88.8,57.3,89.4,57.2,90,57.2z M88.8,59.9c-0.5,0-1,0.2-1,0.7c0,0.7,1,0.9,1.7,0.9c0.3,0,0.6-0.1,0.8-0.2
				C90.4,60.5,89.7,59.9,88.8,59.9C88.8,59.9,88.8,59.9,88.8,59.9L88.8,59.9z"/>
		</g>
		<g id="グループ化_69">
			<path id="パス_80" class="st2" d="M98.9,61.8c-0.1,0.2-0.2,0.4-0.4,0.4c-0.2,0-0.4-0.1-0.4-0.3c0,0,0,0,0,0
				c0-0.1,0-0.2,0.4-0.7c0.8-1.2,1.3-2.6,1.5-4c-0.3,0.1-1.6,0.4-1.8,0.4c-0.2,0-0.3-0.2-0.3-0.3c0,0,0,0,0,0c0-0.2,0.2-0.4,0.3-0.4
				c0.4-0.1,1.4-0.3,1.9-0.3c0-0.2,0.3-1.8,0.3-1.8c0-0.2,0.2-0.3,0.3-0.3c0.1,0,0.4,0,0.4,0.3c0,0.2-0.2,1.2-0.3,1.7
				c0.2,0,0.4,0,0.7,0c1.2,0,2.1,0.4,2.1,2.4c0,1-0.2,2-0.7,2.9c-0.3,0.4-0.8,0.6-1.3,0.6c-0.5,0-1.4-0.2-1.4-0.6
				c0-0.2,0.1-0.3,0.3-0.4c0,0,0,0,0,0c0.2,0.1,0.4,0.1,0.6,0.2c0.2,0.1,0.3,0.1,0.5,0.1c0.3,0,0.6-0.1,0.8-0.4
				c0.4-0.8,0.6-1.6,0.6-2.5c0-1.4-0.5-1.7-1.5-1.7c-0.3,0-0.5,0-0.8,0C100.4,58.6,99.8,60.3,98.9,61.8z M105.4,58.8
				c-0.2,0-0.2-0.1-0.4-0.6c-0.3-1.1-0.9-2-1.6-2.9c-0.1-0.1-0.1-0.2-0.1-0.3c0-0.2,0.1-0.3,0.3-0.4c0,0,0,0,0,0
				c0.2,0,0.2,0,0.6,0.5c0.8,1,1.3,2.1,1.6,3.3C105.7,58.7,105.6,58.8,105.4,58.8z"/>
		</g>
		<g id="グループ化_70">
			<path id="パス_81" class="st2" d="M109.9,60.8c-0.1-0.1-0.1-0.2-0.1-0.3c0-0.1,0.1-0.2,0.2-0.2c0,0,0,0,0,0
				c0.7,0.3,1.2,1,1.4,1.7c0,0.2-0.1,0.3-0.3,0.4c0,0,0,0,0,0c-0.1,0-0.2,0-0.2-0.1c0,0-0.4-0.7-0.6-1
				C110.2,61.2,110,60.9,109.9,60.8z"/>
		</g>
		<g id="グループ化_71">
			<path id="パス_82" class="st2" d="M122.3,57.6c0.3-0.2,0.7-0.3,1.1-0.3c0.6,0,1.2,0.4,1.3,1.1c0.7-0.3,1.5-0.6,2.3-0.9
				c0.2,0,0.3,0.1,0.3,0.3c0,0,0,0,0,0c0,0.3-0.2,0.3-0.6,0.5c-0.6,0.2-1.5,0.5-1.9,0.7c0,0.3,0,0.6,0,0.8c0,0.5,0,0.8-0.4,0.8
				c-0.1,0-0.3,0-0.3-0.4v-0.9c-0.4,0.2-1.5,0.8-1.5,1.4c0,0.9,1.5,0.9,1.8,0.9c0.5,0,1,0,1.5-0.1c0.1,0,0.3-0.1,0.4-0.1
				c0.2,0,0.3,0.1,0.3,0.3c0,0,0,0,0,0c0,0.2-0.1,0.3-0.3,0.4c-0.6,0.1-1.3,0.2-2,0.2c-0.6,0-1.2-0.1-1.8-0.4
				c-0.4-0.2-0.7-0.6-0.7-1.1c0-1,1.3-1.8,2.1-2.2c0-0.4-0.4-0.8-0.8-0.8c0,0,0,0,0,0c-0.5,0-1.1,0.2-2.2,1.3
				c-0.5,0.5-0.6,0.6-0.7,0.6c-0.2,0-0.4-0.1-0.4-0.3c0,0,0,0,0,0c0-0.1,0.1-0.2,0.4-0.6c0.7-0.7,1.3-1.5,1.8-2.3
				c-0.5,0-0.8,0-1.3,0c-0.3,0-0.6,0-0.6-0.3c0-0.3,0.2-0.3,0.7-0.3c0.2,0,1.3,0,1.5,0c0.2-0.4,0.3-0.8,0.5-1.3
				c0-0.1,0.1-0.3,0.4-0.3c0.2,0,0.3,0.1,0.3,0.3c-0.1,0.4-0.2,0.8-0.4,1.2c0.9,0,1.2,0,1.6-0.1c0.3,0,0.7-0.1,0.9-0.1
				s0.3,0.3,0.3,0.3c0,0.3-0.2,0.4-0.6,0.4c-0.7,0.1-1.8,0.1-2.5,0.1C122.7,56.9,122.5,57.2,122.3,57.6z"/>
		</g>
		<g id="グループ化_72">
			<path id="パス_83" class="st2" d="M132.4,56.3c1.4-0.6,2.8-1,4.3-1.1c1.6-0.2,3,1,3.1,2.6c0,0.1,0,0.2,0,0.3
				c0,2.1-2,3.7-5.2,3.7c-0.3,0-0.7,0-0.7-0.4c0-0.2,0.1-0.3,0.3-0.4c0,0,0,0,0.1,0c0.7,0,1.5,0,2.2-0.2c1.4-0.2,2.5-1.3,2.6-2.8
				c0-1.3-1-2.3-2.3-2.3c-0.1,0-0.2,0-0.3,0c-1.3,0.1-2.5,0.5-3.7,1.1c-0.2,0.1-0.4,0.2-0.6,0.2c-0.2,0-0.3-0.2-0.3-0.4
				C132,56.5,132.2,56.4,132.4,56.3z"/>
		</g>
		<g id="グループ化_73">
			<path id="パス_84" class="st2" d="M150.5,58.8c0.3,0.3,0.3,0.4,0.3,0.6c0,0.2-0.2,0.4-0.4,0.4c0,0,0,0,0,0
				c-0.2,0-0.4-0.1-0.6-0.2c-0.7-0.2-1.3-0.3-2-0.3c-0.3,0-2.1,0-2.1,1.1c0,0.9,1.3,1.2,2.4,1.2c0.6,0,1.3-0.1,1.9-0.2
				c0.1,0,0.1,0,0.2,0c0.2,0,0.3,0.1,0.3,0.3c0,0,0,0,0,0c0,0.2-0.1,0.3-0.2,0.3c-0.7,0.2-1.4,0.2-2.2,0.2c-2,0-3.1-0.8-3.1-1.8
				c0-0.8,0.7-1.7,2.8-1.7c0.8,0,1.5,0.1,2.2,0.4c-0.6-0.7-0.9-1.1-1.1-1.5c-0.9,0.1-3.1,0.3-3.8,0.3c-0.2,0-0.4-0.1-0.4-0.4
				c0-0.2,0.1-0.4,0.4-0.4c1.2,0,2.3,0,3.5-0.2c-0.2-0.4-0.4-0.6-0.5-0.9c-0.9,0.1-1.7,0.1-2.6,0.1c-0.2,0-0.5,0-0.5-0.3
				s0.3-0.3,0.4-0.3c0.8,0,1.5,0,2.3-0.1c-0.2-0.3-0.3-0.7-0.5-1c0-0.2,0.2-0.4,0.4-0.4c0.1,0,0.2,0.1,0.3,0.2
				c0,0.1,0.4,0.9,0.5,1.1c0.5-0.1,1-0.1,1.5-0.3c0,0,0.5-0.1,0.5-0.1c0.2,0,0.3,0.1,0.3,0.3c0,0,0,0,0,0c0,0.2-0.2,0.3-0.4,0.4
				c-0.6,0.1-1.1,0.2-1.7,0.3c0.3,0.5,0.4,0.7,0.5,0.9c0.6-0.1,1.2-0.2,1.8-0.3c0.1-0.1,0.3-0.1,0.4-0.1c0.2,0,0.3,0.1,0.3,0.3
				c0,0,0,0,0,0c0,0.2-0.1,0.3-0.3,0.3c-0.6,0.2-1.2,0.3-1.9,0.4C149.9,58,150.2,58.4,150.5,58.8z M150.7,54.4c0,0,0-0.1,0-0.1
				c0-0.1,0.1-0.2,0.2-0.2c0,0,0,0,0,0c0.3,0,0.9,1.2,0.9,1.5c0,0.1-0.1,0.2-0.2,0.2c0,0,0,0,0,0c-0.1,0-0.2-0.1-0.2-0.2
				c-0.1-0.3-0.2-0.5-0.3-0.6C151,54.8,150.9,54.6,150.7,54.4z M151.5,54.2c0,0-0.1-0.1-0.1-0.1c0-0.1,0.1-0.2,0.2-0.2c0,0,0,0,0,0
				c0.3,0,0.9,1.3,0.9,1.5c0,0.1-0.1,0.2-0.2,0.2c-0.1,0-0.2-0.1-0.2-0.2c-0.1-0.3-0.2-0.5-0.2-0.6
				C151.7,54.6,151.6,54.4,151.5,54.2L151.5,54.2z"/>
		</g>
		<g id="グループ化_74">
			<path id="パス_85" class="st2" d="M156.8,56.3c1.4-0.6,2.8-1,4.3-1.1c1.6-0.2,3,1,3.1,2.6c0,0.1,0,0.2,0,0.3
				c0,2.1-2,3.7-5.2,3.7c-0.3,0-0.7,0-0.7-0.4c0-0.2,0.1-0.3,0.3-0.4c0,0,0,0,0.1,0c0.7,0,1.5,0,2.2-0.2c1.4-0.2,2.5-1.3,2.6-2.8
				c0-1.3-1-2.3-2.3-2.3c-0.1,0-0.2,0-0.3,0c-1.3,0.1-2.5,0.5-3.7,1.1c-0.2,0.1-0.4,0.2-0.6,0.2c-0.2,0-0.3-0.2-0.3-0.4
				C156.4,56.5,156.6,56.4,156.8,56.3z"/>
		</g>
		<g id="グループ化_75">
			<path id="パス_86" class="st2" d="M174.9,58.8c0.3,0.3,0.3,0.4,0.3,0.6c0,0.2-0.2,0.4-0.4,0.4c0,0,0,0,0,0
				c-0.2,0-0.4-0.1-0.6-0.2c-0.7-0.2-1.3-0.3-2-0.3c-0.3,0-2.1,0-2.1,1.1c0,0.9,1.3,1.2,2.4,1.2c0.6,0,1.3-0.1,1.9-0.2
				c0.1,0,0.1,0,0.2,0c0.2,0,0.3,0.1,0.3,0.3c0,0,0,0,0,0c0,0.2-0.1,0.3-0.2,0.3c-0.7,0.2-1.4,0.2-2.2,0.2c-2,0-3.1-0.8-3.1-1.8
				c0-0.8,0.7-1.7,2.8-1.7c0.8,0,1.5,0.1,2.2,0.4c-0.6-0.7-0.9-1.1-1.1-1.5c-0.9,0.1-3.1,0.3-3.8,0.3c-0.2,0-0.4-0.1-0.4-0.4
				c0-0.2,0.1-0.4,0.4-0.4c1.2,0,2.3,0,3.5-0.2c-0.2-0.4-0.4-0.6-0.5-0.9c-0.9,0.1-1.7,0.1-2.6,0.1c-0.2,0-0.5,0-0.5-0.3
				s0.3-0.3,0.4-0.3c0.8,0,1.5,0,2.3-0.1c-0.2-0.3-0.3-0.7-0.5-1c0-0.2,0.2-0.4,0.4-0.4c0.1,0,0.2,0.1,0.3,0.2
				c0,0.1,0.4,0.9,0.5,1.1c0.5-0.1,1-0.1,1.5-0.3c0,0,0.5-0.1,0.5-0.1c0.2,0,0.3,0.1,0.3,0.3c0,0,0,0,0,0c0,0.2-0.2,0.3-0.4,0.4
				c-0.6,0.1-1.1,0.2-1.7,0.3c0.3,0.5,0.4,0.7,0.5,0.9c0.6-0.1,1.2-0.2,1.8-0.3c0.1-0.1,0.3-0.1,0.4-0.1c0.2,0,0.3,0.1,0.3,0.3
				c0,0,0,0,0,0c0,0.2-0.1,0.3-0.3,0.3c-0.6,0.2-1.2,0.3-1.9,0.4C174.3,58,174.6,58.4,174.9,58.8z M175.2,54.4c0,0,0-0.1,0-0.1
				c0-0.1,0.1-0.2,0.2-0.2c0,0,0,0,0,0c0.3,0,0.9,1.2,0.9,1.5c0,0.1-0.1,0.2-0.2,0.2c0,0,0,0,0,0c-0.1,0-0.2-0.1-0.2-0.2
				c-0.1-0.3-0.2-0.5-0.3-0.6C175.4,54.8,175.3,54.6,175.2,54.4L175.2,54.4z M175.9,54.2c0,0-0.1-0.1-0.1-0.1c0-0.1,0.1-0.2,0.2-0.2
				c0,0,0,0,0,0c0.3,0,0.9,1.3,0.9,1.5c0,0.1-0.1,0.2-0.2,0.2c-0.1,0-0.2-0.1-0.2-0.2c-0.1-0.3-0.2-0.5-0.2-0.6
				C176.1,54.6,176,54.4,175.9,54.2L175.9,54.2z"/>
		</g>
		<g id="グループ化_76">
			<path id="パス_87" class="st2" d="M183.2,55c-0.1-0.2-0.2-0.4-0.2-0.6c0-0.2,0.2-0.4,0.4-0.4c0.3,0,0.3,0.2,0.4,0.4
				c0.2,0.6,0.3,0.9,0.9,2.9c0.8-0.3,1.7-0.6,2.5-0.7c0.2,0,0.3,0.1,0.4,0.3c0,0,0,0,0,0c0,0.1-0.1,0.3-0.2,0.3
				c-0.3,0.1-0.5,0.1-0.8,0.2c-1.9,0.5-4.5,1.3-4.5,2.7s2.2,1.4,2.8,1.4c0.7,0,1.4-0.1,2.1-0.2c0.2,0,0.6-0.2,0.7-0.2
				c0.2,0,0.4,0.2,0.4,0.4c0,0,0,0,0,0c0,0.2-0.1,0.3-0.3,0.4c-0.9,0.2-1.9,0.4-2.8,0.3c-0.7,0-3.5,0-3.5-2.1c0-1.4,1.5-2.2,2.6-2.6
				C184,57.5,183.5,55.9,183.2,55z"/>
		</g>
		<g id="グループ化_77">
			<path id="パス_88" class="st2" d="M195.8,61c0,0.8-0.6,1.4-1.4,1.3c-0.8,0-1.4-0.6-1.3-1.4c0-0.7,0.6-1.3,1.4-1.3
				C195.2,59.6,195.8,60.2,195.8,61C195.8,61,195.8,61,195.8,61z M193.5,61c0,0.5,0.4,0.9,0.9,0.9c0.5,0,0.9-0.4,0.9-0.9
				c0-0.5-0.4-0.9-0.9-0.9C193.9,60,193.5,60.5,193.5,61L193.5,61z"/>
		</g>
	</g>
</g>
</svg>
