<?xml version="1.0" encoding="UTF-8"?>
<svg id="logo" xmlns="http://www.w3.org/2000/svg" viewBox="0 0 148.23 31.88">
  <defs>
    <style>
      .cls-1 {
        fill: #231815;
      }
    </style>
  </defs>
  <g>
    <path class="cls-1" d="M5.45,18.49h-1.77c-.16,0-.34,.08-.36,.28-.12,1.35-.62,4.68-2.5,6.09-.24,.18-.19,.6,.08,.68,.2,.06,.52,0,.79-.1,.26-.1,.91-.18,.91,.61v5.43c0,.26,.12,.37,.37,.37h1.34c.26,0,.46-.12,.46-.46v-7.97c0-.5,.15-1.06,.33-1.51,.3-.79,.62-1.9,.62-3.08,0-.18-.1-.34-.26-.34Z"/>
    <path class="cls-1" d="M7.87,19.44h6.36c.11,0,.19-.07,.19-.19v-.58c0-.12-.08-.22-.22-.22H7.92c-.15,0-.23,.11-.23,.23v.56c0,.1,.04,.19,.18,.19Z"/>
    <path class="cls-1" d="M14.65,23.66c.11,0,.19-.07,.19-.19v-.58c0-.12-.08-.22-.22-.22H7.49c-.15,0-.23,.11-.23,.23v.57c0,.1,.04,.19,.18,.19h7.21Z"/>
    <path class="cls-1" d="M7.26,25.48c0,.1,.04,.19,.18,.19h7.21c.11,0,.19-.07,.19-.19v-.58c0-.12-.08-.22-.22-.22H7.49c-.15,0-.23,.11-.23,.23v.56Z"/>
    <path class="cls-1" d="M15.22,20.61H6.9c-.15,0-.23,.11-.23,.23v.56c0,.1,.04,.19,.18,.19H15.24c.11,0,.19-.07,.19-.19v-.58c0-.12-.08-.22-.22-.22Z"/>
    <path class="cls-1" d="M14.47,26.77H7.7c-.26,0-.46,.18-.46,.45v4.25c0,.18,.14,.38,.4,.38h6.79c.2,0,.43-.14,.43-.34v-4.35c0-.21-.19-.39-.39-.39Zm-1.85,3.65c0,.2-.2,.5-.5,.5h-2.16c-.28,0-.49-.24-.49-.49v-2.19c0-.28,.27-.49,.49-.49h2.18c.32,0,.48,.3,.48,.48v2.18Z"/>
    <path class="cls-1" d="M23.89,18.92c-.21-.06-1.89-.39-2.11-.41-.14-.01-.33,.08-.33,.29s.05,.66,.23,.8c.27,.2,2.17,1.11,2.32,1.17,.14,.06,.29,0,.33-.19,.04-.18,.14-.81-.06-1.29-.06-.14-.16-.31-.37-.37Z"/>
    <path class="cls-1" d="M23.89,22.18c-.27-.08-1.78-.41-2.03-.43-.21-.02-.35,.04-.37,.18-.02,.14-.06,.78,.33,1.03,.39,.25,1.89,.92,2.09,1.03,.21,.1,.41,.02,.43-.21,.02-.22,.04-.92-.04-1.19-.08-.27-.14-.33-.41-.41Z"/>
    <path class="cls-1" d="M23.63,25.99c-.14,.39-.6,2.22-2.09,2.56-.27,.06-.39,.35-.39,.58v2.29c0,.25,.26,.6,.66,.39,1.11-.59,2.19-2.46,2.4-3.32,.21-.86,.15-2.17,.1-2.54-.06-.47-.55-.29-.68,.04Z"/>
    <path class="cls-1" d="M33.81,18.88h-1.85c-.18,0-.19-.16-.19-.16,0-.2-.16-.37-.37-.37h-.65c-.2,0-.37,.16-.37,.37,0,0,0,.16-.17,.16h-.73c-.14,0-.14-.16-.14-.16,0-.2-.16-.37-.37-.37h-.65c-.2,0-.37,.16-.37,.37,0,0,.02,.16-.16,.16h-1.88c-.2,0-.37,.16-.37,.37v3.12c0,.2,.16,.37,.37,.37h7.9c.2,0,.37-.17,.37-.37v-3.12c0-.2-.17-.37-.37-.37Zm-5.67,2.98c0,.14-.11,.25-.27,.25h-.69c-.16,0-.25-.11-.25-.25v-.5c0-.16,.14-.28,.28-.28h.67c.16,0,.27,.11,.27,.28v.5Zm0-1.53c0,.14-.11,.25-.27,.25h-.69c-.16,0-.25-.11-.25-.25v-.5c0-.16,.14-.28,.28-.28h.67c.16,0,.27,.11,.27,.28v.5Zm2.32,1.53c0,.14-.11,.25-.27,.25h-.69c-.16,0-.25-.11-.25-.25v-.5c0-.16,.14-.28,.28-.28h.67c.16,0,.27,.11,.27,.28v.5Zm0-1.53c0,.14-.11,.25-.27,.25h-.69c-.16,0-.25-.11-.25-.25v-.5c0-.16,.14-.28,.28-.28h.67c.16,0,.27,.11,.27,.28v.5Zm2.32,1.53c0,.14-.11,.25-.27,.25h-.69c-.16,0-.25-.11-.25-.25v-.5c0-.16,.14-.28,.28-.28h.67c.16,0,.27,.11,.27,.28v.5Zm0-1.53c0,.14-.11,.25-.27,.25h-.69c-.16,0-.25-.11-.25-.25v-.5c0-.16,.14-.28,.28-.28h.67c.16,0,.27,.11,.27,.28v.5Z"/>
    <path class="cls-1" d="M34.1,25.64v-.32c0-.11-.08-.18-.18-.18h-6.39c-.29,0-.5-.16-.5-.44s.22-.46,.5-.46h6.41c.09,0,.16-.06,.16-.16v-.35c0-.08-.05-.15-.18-.15h-8.04c-.17,0-.35,.2-.35,.35v2.67c0,.58-.35,1.59-.62,1.86-.08,.08-.15,.25-.15,.38v2.56c0,.17,.11,.29,.31,.23,.48-.15,.8-.32,1.22-.85,.42-.52,.68-1.32,.68-1.79v-2.62c0-.24,.18-.57,.66-.57h6.3c.09,0,.17-.08,.17-.17Z"/>
    <path class="cls-1" d="M33.96,26.68h-5.51c-.25,0-.43,.18-.43,.42v4.33c0,.14,.08,.36,.28,.29,.62-.2,1.68-.84,2.1-1.37,.11-.14,.17-.23,.17-.39v-.54c0-.11-.12-.17-.26-.15-.14,.02-.43,.08-.57,.08s-.29-.06-.29-.36v-1.08c0-.26,.15-.4,.32-.4s.42,.12,.54,.32c.12,.2,1.72,2.73,2.6,3.45,.34,.28,.52,.43,.83,.37,.31-.06,.39-.2,.39-.45v-1.16c0-.25-.19-.37-.37-.48-.19-.11-.45-.43-.46-.82-.02-.39,.09-.8,.19-1,.09-.2,.4-.35,.51-.39,.11-.03,.17-.11,.17-.17v-.34c0-.11-.08-.19-.19-.19Zm-1.47,1.47c-.08,.23-.37,.34-.63,.26-.26-.08-.52-.34-.66-.55-.14-.22,.02-.4,.23-.43h.75c.14,0,.23,.08,.32,.18,.11,.13,.06,.31-.02,.54Z"/>
    <path class="cls-1" d="M43.88,23.62c-.27-.22-.93-.91-1-1.02-.05-.08-.04-.14,.01-.16h.62c.11,0,.21-.09,.21-.21v-.5c0-.12-.09-.21-.21-.21h-.63c-.13,0-.2-.09-.2-.2v-2.67c0-.11-.09-.21-.21-.21h-1.27c-.11,0-.21,.09-.21,.21v2.71c0,.09-.07,.16-.18,.16h-1.17c-.12,0-.21,.09-.21,.21v.5c0,.12,.09,.21,.21,.21h1.28c-.18,.8-1.08,2.8-2.1,4.16-.11,.14-.07,.21-.04,.27,.04,.05,.2,.38,.25,.45,.05,.07,.18,.1,.27,.04,.48-.34,1.31-1.07,1.54-1.36,.07-.09,.14,0,.14,.11v5.51c0,.12,.09,.21,.21,.21h1.27c.12,0,.21-.09,.21-.21v-7.02c.04-.09,.09-.15,.14-.08,.07,.09,.27,.32,.38,.38,.09,.05,.18,.02,.21-.04,.04-.05,.47-.86,.5-.95,.04-.09,.04-.21-.04-.27Z"/>
    <path class="cls-1" d="M81.96,22.6c-.05-.08-.04-.14,.02-.16h.62c.11,0,.21-.09,.21-.21v-.5c0-.12-.09-.21-.21-.21h-.63c-.12,0-.2-.09-.2-.2v-2.67c0-.11-.09-.21-.21-.21h-1.27c-.11,0-.21,.09-.21,.21v2.71c0,.09-.07,.16-.18,.16h-1.17c-.12,0-.21,.09-.21,.21v.5c0,.12,.09,.21,.21,.21h1.28c-.18,.8-1.08,2.8-2.1,4.16-.11,.14-.07,.21-.04,.27,.04,.05,.2,.38,.25,.45,.05,.07,.18,.1,.27,.04,.48-.34,1.31-1.07,1.54-1.36,.07-.09,.14,0,.14,.11v5.51c0,.12,.09,.21,.21,.21h1.27c.11,0,.21-.09,.21-.21v-7.02c.04-.09,.09-.15,.14-.08,.07,.09,.27,.32,.38,.38,.09,.05,.18,.02,.21-.04,.04-.05,.47-.86,.5-.95,.04-.09,.04-.21-.04-.27-.27-.22-.93-.91-1-1.02Z"/>
    <path class="cls-1" d="M43.94,21.08c.16,.05,1.02,.59,1.15,.66,.12,.07,.12,.18,.02,.29-.11,.11-.68,.61-.79,.7-.11,.09-.2,.38-.18,.56,.02,.18,.16,.63,.29,.75,.12,.13,.3,.18,.47,.14,.16-.04,1.22-.32,1.38-.36,.16-.04,.25-.04,.3,.05,.05,.09,.09,.2,.14,.27,.05,.07,.16,.11,.25,.04,.09-.07,.52-.45,.59-.52,.07-.07,.12-.21,0-.38-.13-.16-1.04-1.34-1.04-1.34,0,0,.52-.38,.61-.45,.09-.07,.09-.18,.04-.25-.05-.07-.34-.36-.41-.43-.07-.07-.2-.09-.3,0-.11,.09-.34,.34-.41,.39-.07,.05-.12,.07-.2,.02-.07-.05-.43-.4-.5-.47-.07-.07-.09-.14-.04-.23,.05-.09,.97-1.18,1.04-1.25,.07-.07,.09-.2-.02-.29-.11-.09-.43-.29-.52-.34-.09-.06-.2-.04-.27,.11-.1,.2-.61,1.22-.82,1.4-.09,.07-.14,0-.21,.07-.07,.07-.56,.52-.63,.59-.07,.07-.09,.21,.07,.27Zm1.38,1.77c.11-.11,.28-.28,.38-.34,.09-.05,.16-.05,.22,.05,.05,.11,.14,.3,.2,.39,.05,.09-.04,.14-.13,.16-.09,.02-.36,.05-.56,.07-.2,.02-.21-.23-.11-.34Z"/>
    <path class="cls-1" d="M53.15,29.46c-.29-.22-1-.88-1.25-1.34,0,0,.63-.98,.68-1.07,.05-.09,0-.16-.07-.24-.07-.07-.37-.21-.5-.27-.13-.05-.36,.04-.47,.2-.11,.16-.16,.21-.23,.29-.07,.07-.16,.09-.23,0-.07-.09-.59-.97-.68-1.13-.09-.16,.02-.21,.11-.21h2.71c.12,0,.21-.09,.21-.21v-.53c0-.12-.09-.21-.21-.21h-1.57s-.08-.09-.07-.2c.02-.14,.22-.79,.27-.91,.05-.13,.2-.18,.27-.07,.07,.11,.14,.25,.29,.2,.14-.05,.56-.36,.64-.46,.09-.11,.13-.3-.04-.48-.16-.18-.81-.93-.91-1.07-.11-.14-.11-.21,0-.29,.11-.07,.5-.34,.57-.38,.07-.04,.09-.11,.02-.21-.07-.11-.29-.32-.39-.41-.11-.09-.29-.07-.39,.04-.11,.11-.25,.21-.34,.29-.09,.07-.18,.07-.25,.02-.07-.05-.39-.36-.47-.43-.07-.07-.11-.14-.04-.21,.07-.07,.99-1.22,1.06-1.31,.07-.09,.07-.18,0-.23-.07-.05-.45-.27-.54-.3-.09-.04-.21-.04-.27,.05-.08,.13-.77,1.29-.84,1.36-.07,.07-.12,0-.2,.05-.07,.05-.57,.55-.66,.65-.09,.09-.05,.16,.04,.21,.09,.05,1.16,.72,1.25,.77,.09,.05,.09,.13,0,.2-.09,.07-.75,.63-.84,.7-.09,.07-.2,.3-.18,.5,.02,.2,.2,.73,.3,.84,.11,.11,.22,.16,.34,.14,.13-.02,.3,0,.25,.18-.05,.18-.16,.61-.2,.68-.04,.07-.16,.11-.16,.11h-.22s-.14-.05-.2-.18c-.66-1.54-1.27-3.87-1.5-6.13,0-.09-.04-.16-.16-.14-.12,.02-.41,.02-.52,.04-.11,.02-.14,.09-.14,.2,0,.21,.46,3.47,1.2,6.07,.04,.13-.11,.14-.11,.14h-4.36c-.11,0-.21,.09-.21,.21v.53c0,.12,.09,.21,.21,.21h.96c.09,0,.2,.05,.2,.14,0,.05,.02,1.63-.04,2.24-.05,.61-.37,1.47-1.16,1.56-.16,.02-.23,.12-.23,.25v1.67c0,.14,.12,.26,.3,.18,.98-.41,1.74-1.22,1.99-2.13,.07-.25,.12-.53,.16-.82,.02-.04,.07-.09,.16-.08,.14,.02,.5,.31,.75,.52,.25,.21,.59,.02,.66-.14,.07-.16,.3-.95,.36-1.13,.05-.18-.07-.32-.16-.38-.09-.05-.23-.05-.36-.09-.11-.03-1.06-.38-1.29-.47,0-.09,0-.17,0-.23v-.93c0-.12,.09-.16,.21-.16h2.13c.11,0,.21,.1,.23,.16,.23,.81,.7,1.96,.82,2.2,.07,.14,.05,.23-.05,.32-.43,.41-1.33,1.07-2.02,1.34-.18,.07-.2,.23-.2,.34v1.38c0,.16,.17,.31,.38,.2,.66-.38,1.94-1.48,2.42-1.95,.14-.14,.28-.1,.38,.05,.29,.48,.97,1.59,2.27,2.02,.27,.09,.41-.14,.41-.34v-1.42c0-.2-.08-.39-.29-.54Zm-2.38-6.99c.07-.12,.29-.29,.43-.34,.07-.03,.16-.07,.21,.04,.05,.11,.11,.29,.16,.38,.05,.09-.05,.2-.18,.2s-.32,.02-.48,.02-.21-.16-.14-.29Z"/>
    <path class="cls-1" d="M64.46,18.43h-4.58c-.12,0-.21,.09-.21,.21v8.76c0,.12,.09,.21,.21,.21h4.58c.11,0,.21-.09,.21-.21v-8.76c0-.12-.09-.21-.21-.21Zm-1.52,8.01c0,.12-.09,.21-.21,.21h-1.21c-.11,0-.21-.09-.21-.21v-1.43c0-.12,.09-.21,.21-.21h1.21c.12,0,.21,.09,.21,.21v1.43Zm0-2.79c0,.12-.09,.21-.21,.21h-1.21c-.11,0-.21-.09-.21-.21v-1.28c0-.12,.09-.21,.21-.21h1.21c.12,0,.21,.09,.21,.21v1.28Zm0-2.64c0,.12-.09,.21-.21,.21h-1.21c-.11,0-.21-.09-.21-.21v-1.43c0-.12,.09-.21,.21-.21h1.21c.12,0,.21,.09,.21,.21v1.43Z"/>
    <path class="cls-1" d="M61.04,28.22c-.1-.1-.33-.12-.46,.05-.15,.21-.8,.9-1.06,1.07-.2,.13-.23,.28-.23,.41v1.62c0,.15,.17,.25,.33,.15,.81-.51,1.61-1.43,1.98-2.23,.13-.28,.1-.48-.05-.64-.15-.15-.41-.33-.51-.43Z"/>
    <path class="cls-1" d="M64.16,28.68c-.13-.08-.61-.35-.71-.41-.1-.05-.15-.08-.25-.08s-.51,.08-.63,.1c-.13,.02-.15,.1-.13,.2,.04,.16,.45,.98,1.14,1.5,.2,.15,.43,.15,.53,.15s.28-.1,.28-.28v-.76c0-.23-.1-.36-.23-.43Z"/>
    <path class="cls-1" d="M72.63,28.35c-.15-.08-.58-.25-.68-.35-.1-.1-.12-.18-.08-.31,.15-.4,.3-1.06,.3-1.67v-3.86c0-.23-.2-.47-.47-.47h-3.72c-.15,0-.23-.07-.23-.23v-1.81c0-.15,.08-.28,.21-.28h3.93c.13,0,.23-.08,.23-.2v-.53c0-.13-.08-.2-.2-.2h-5.4c-.18,0-.41,.15-.41,.41v7.33c0,.51-.22,1.83-.86,2.26-.15,.1-.25,.28-.25,.48v2.49c0,.18,.18,.3,.36,.28,.74-.1,1.52-.46,1.98-1.4,.46-.94,.38-1.42,.38-1.75v-2.59c0-.25,.15-.3,.25-.1,.1,.2,.78,1.53,1.12,2.03,.1,.15,.05,.25-.05,.3-.1,.05-.25,.1-.38,.13-.13,.02-.25,.18-.25,.3v2.92c0,.2,.15,.28,.33,.2,.18-.08,.65-.32,1.72-1.57,.15-.18,.26-.15,.33-.05,.28,.38,1.27,1.29,1.78,1.55,.2,.1,.33,0,.33-.23v-2.66c0-.23-.1-.33-.25-.41Zm-2.41-2.51c0,.23-.2,.28-.33,.13-.28-.33-1.77-2.62-1.85-2.79-.08-.15-.02-.28,.15-.28h1.8c.13,0,.23,.05,.23,.23v2.71Z"/>
    <path class="cls-1" d="M89.02,25c-.09-.16-.06-.22,.07-.22,0,0,0,0,0,0h2.56c.12,0,.21-.09,.21-.21v-.5c0-.12-.09-.21-.21-.21h-2.83v-2.47h2.36c.12,0,.21-.09,.21-.21v-.5c0-.11-.09-.21-.21-.21h-2.36v-1.83c0-.11-.09-.21-.21-.21h-1.3c-.12,0-.21,.09-.21,.21v1.61h0c0,.14-.08,.22-.22,.22h0s-1.07,0-1.07,0c-.09-.03-.14-.08-.12-.21,.03-.14,.04-1.41,.04-1.58,0-.14-.11-.25-.28-.25h-1.07c-.15,0-.39,.09-.39,.44,0,1.61-.1,2.72-.74,3.29-.11,.1-.1,.28-.04,.34,.06,.06,.31,.31,.4,.39,.09,.08,.27,.07,.47-.05,.53-.33,.91-.75,1.17-1.27,.06-.13,.13-.18,.29-.18h0s1.57,0,1.57,0v2.26h0c0,.13-.07,.2-.18,.21h-2.75c-.12,0-.21,.09-.21,.21v.5c0,.12,.09,.21,.21,.21h2.64c.15,0,.15,.09,.07,.2-1.27,1.89-2.36,3.36-3.48,4.48-.11,.11-.15,.2-.15,.29v.62c0,.11,.08,.19,.24,.09,.82-.53,2.37-1.7,3.36-2.59,.17-.16,.24-.03,.25,.06v3.64c0,.11,.09,.21,.21,.21h1.3c.12,0,.21-.09,.21-.21v-3.76s.06-.06,.1-.02c.54,.51,2.44,2.08,3.5,2.69,.13,.07,.18,0,.18-.09v-.54c0-.13-.05-.29-.13-.36-1.41-1.4-3.03-3.7-3.46-4.48Z"/>
    <path class="cls-1" d="M110.07,20.46h-4.3c-.14,0-.17-.11-.17-.16-.09-.74-.11-1.32-.11-1.61,0-.18-.06-.26-.24-.26h-.69c-.14,0-.21,.14-.21,.25,0,.31,.02,.91,.08,1.65,0,.04-.01,.13-.15,.13h-7.38c-.11,0-.21,.09-.21,.21v.54c0,.12,.09,.21,.21,.21h7.43c.11,0,.22,.12,.23,.18,.2,1.8,.59,3.98,1.26,5.46,1.17,2.58,2.41,4.16,3.82,4.48,.3,.07,.64-.02,.64-.41v-1.9c0-.25-.1-.46-.32-.62-.78-.55-2.33-1.97-3.2-3.89-.5-1.1-.8-2.28-.99-3.31h4.3c.12,0,.21-.09,.21-.21v-.54c0-.12-.09-.21-.21-.21Z"/>
    <path class="cls-1" d="M107.9,19.77h.75c.11,0,.27-.07,.37-.18,.09-.12,.59-.83,.66-.94,.11-.16,.05-.27-.11-.27h-.71c-.09,0-.23,.05-.27,.14-.06,.12-.71,.96-.78,1.05-.07,.09,0,.21,.09,.21Z"/>
    <path class="cls-1" d="M104.06,28.07c-.42,.14-1.27,.42-2.34,.72h0s-.23,.02-.23-.19v-3.13c0-.08,.05-.16,.18-.16h1.55c.12,0,.21-.09,.21-.21v-.52c0-.12-.09-.21-.21-.21h-5.37c-.12,0-.21,.09-.21,.21v.52c0,.12,.09,.21,.21,.21h1.64c.16,0,.16,.07,.16,.21v3.5c0,.18-.05,.25-.18,.3h0c-.68,.13-1.39,.23-2.1,.29-.23,.02-.37,.23-.37,.41v1.46c0,.21,.21,.4,.57,.32,1.78-.39,5.32-1.65,6.38-2.29,.23-.14,.32-.27,.34-.41,.02-.13,.07-.64,.07-.82s-.16-.26-.32-.21Z"/>
    <path class="cls-1" d="M129.02,22.82c-1.4-.64-4.03-2.25-5.87-4.24-.1-.11-.21-.17-.42-.17h-2.16c-.17,0-.33,.07-.42,.17-1.44,1.42-3.42,3.22-5.91,4.26-.25,.11-.28,.23-.28,.36v.49c0,.13,.09,.29,.36,.21,1.08-.3,4.16-1.57,7.01-3.71,.25-.19,.52-.11,.68,.02,1.16,.97,4.4,2.84,6.93,3.69,.25,.08,.36-.02,.36-.19v-.51c0-.15-.08-.29-.27-.38Z"/>
    <path class="cls-1" d="M117.72,24.1h8.48c.11,0,.21,.09,.21,.21v.56c0,.12-.09,.21-.21,.21h-8.48c-.12,0-.21-.09-.21-.21v-.56c0-.12,.09-.21,.21-.21Z"/>
    <path class="cls-1" d="M128.25,26.19h-12.61c-.12,0-.21,.09-.21,.21v.53c0,.12,.09,.21,.21,.21h2.23c.34,0,.49,.34,.36,.59-.13,.26-1.4,2.52-1.61,2.95-.21,.42-.08,.8,.13,.93,.21,.13,.47,.19,1.04,.15,.57-.04,3.47-.26,6.55-1.19,.7-.21,1.06,.04,1.23,.26,.17,.21,.44,.55,.53,.65,.08,.11,.17,.26,.42,.26h1.63c.23,0,.4-.26,.19-.53-.21-.28-1.39-2.05-2.05-2.61-.13-.11-.28-.23-.47-.23h-1.46c-.25,0-.36,.15-.27,.36,.08,.21,.24,.52-.13,.74-.57,.34-2.36,.89-3.56,.7-.53-.08-.7-.36-.53-.74,.17-.38,.61-1.21,.83-1.55,.21-.34,.7-.74,1.46-.74h6.1c.12,0,.21-.09,.21-.21v-.53c0-.12-.09-.21-.21-.21Z"/>
    <path class="cls-1" d="M140.29,27.19v-.8c0-.23-.11-.36-.19-.46-.08-.11-1.59-1.33-1.72-1.46-.13-.13-.15-.19,0-.34,.71-.71,1.69-1.91,2.29-2.82,.11-.17,.11-.38,.08-.49-.02-.11-.11-.32-.17-.42-.06-.11-.19-.15-.32-.15h-1.69c-.15,0-.23-.06-.23-.19v-1.4c0-.12-.09-.21-.21-.21h-1.21c-.12,0-.21,.09-.21,.21v1.4c0,.11-.04,.2-.2,.2h-2.4c-.15,0-.21,.13-.21,.21v.52c0,.11,.06,.19,.19,.19s2.66-.07,3.45,.28c.28,.12,.24,.44,.08,.66-.85,1.17-2.79,3.32-4.13,4.28-.15,.11-.19,.21-.19,.32v.78c0,.11,.04,.23,.3,.13,.25-.11,1.83-.86,2.86-1.76,.17-.15,.25-.06,.25,.17v5.6c0,.12,.09,.21,.21,.21h1.21c.12,0,.21-.09,.21-.21v-5.15c0-.23,.13-.26,.25-.15,.13,.11,1.17,.91,1.36,1.04,.19,.13,.34,0,.34-.17Z"/>
    <path class="cls-1" d="M148.02,30.89h-3.02c-.1,0-.17-.08-.17-.18v-6.75c0-.08,.05-.14,.15-.14h1.99c.12,0,.21-.09,.21-.21v-.53c0-.12-.09-.21-.21-.21h-1.99c-.1,0-.15-.04-.15-.14v-4.04c0-.12-.09-.21-.21-.21h-.95c-.12,0-.21,.09-.21,.21v4.06c0,.1-.03,.12-.13,.12h-2.01c-.11,0-.21,.09-.21,.21v.53c0,.11,.09,.21,.21,.21h1.97c.12,0,.17,.08,.17,.16v6.75c0,.12-.05,.16-.17,.16h-3.02c-.12,0-.21,.09-.21,.21v.55c0,.11,.09,.21,.21,.21h7.76c.12,0,.21-.09,.21-.21v-.55c0-.12-.09-.21-.21-.21Z"/>
  </g>
  <path class="cls-1" d="M8.04,0C3.6,0,0,3.6,0,8.04s3.6,8.04,8.04,8.04,8.04-3.6,8.04-8.04S12.48,0,8.04,0Zm0,15.51C3.91,15.51,.56,12.17,.56,8.04S3.91,.56,8.04,.56s7.48,3.35,7.48,7.47-3.35,7.48-7.48,7.48Z"/>
  <g>
    <path class="cls-1" d="M10.67,3.11H5.87c-.95,0-1.73,.78-1.73,1.73s.78,1.73,1.73,1.73h2.55c1.13,0,2.06,.92,2.06,2.06s-.92,2.06-2.06,2.06h-2.41c-1.13,0-2.06-.92-2.06-2.06v-.24h-1.14v.24c0,1.69,1.38,3.07,3.07,3.07h2.41c1.03,0,1.95-.52,2.5-1.3v1.3h1.14V4.37c0-.69-.57-1.26-1.26-1.26Zm.12,3.75c-.56-.79-1.47-1.3-2.5-1.3h-2.55c-.4,0-.72-.32-.72-.72s.32-.72,.72-.72h4.8c.14,0,.25,.11,.25,.25v2.49Z"/>
    <path class="cls-1" d="M10.54,1.9H5.74c-1.62,0-2.93,1.32-2.93,2.93s1.32,2.93,2.93,2.93h2.55c.47,0,.85,.38,.85,.85s-.38,.85-.85,.85h-2.41c-.47,0-.85-.38-.85-.85v-.24h-.87v.24c0,1.03,.83,1.86,1.86,1.86h2.41c1.03,0,1.86-.84,1.86-1.86s-.84-1.86-1.86-1.86h-2.55c-1.06,0-1.92-.86-1.92-1.93s.86-1.93,1.92-1.93h4.8c.8,0,1.45,.65,1.45,1.46v7.32h.87V4.37c0-1.36-1.1-2.46-2.46-2.46Z"/>
    <path class="cls-1" d="M3.75,12.04c-.06-.07-.17-.07-.24,0-.07,.06-.07,.17,0,.24l.37,.38c.15,.16,.15,.41-.01,.56-.16,.15-.41,.15-.56-.01l-.72-.75,.16-.16,.58,.61c.06,.07,.17,.07,.24,0,.07-.06,.07-.17,0-.24l-.37-.38c-.15-.16-.15-.41,.01-.56,.16-.15,.41-.14,.56,.01l.73,.77-.16,.16-.6-.62Z"/>
    <polygon class="cls-1" points="6.33 14.84 5.99 14.75 6.34 13.44 6.68 13.53 6.33 14.84"/>
    <path class="cls-1" d="M8.12,14.55c0,.06-.04,.08-.08,.02l-.63-.94-.39-.03-.1,1.35h.23s.06-.86,.06-.86c0-.07,.04-.08,.08-.02l.64,.95,.38,.03,.1-1.35h-.23s-.06,.85-.06,.85Z"/>
    <path class="cls-1" d="M11.32,13.66c.03,.06,0,.08-.06,.06l-1.02-.5-.35,.17,.59,1.22,.21-.1-.38-.79c-.03-.06,0-.08,.06-.06l1.03,.5,.34-.17-.59-1.22-.21,.1,.38,.78Z"/>
    <path class="cls-1" d="M4.6,13.52s.04-.03,.06-.02l.63,.36s.03,.04,.02,.06l-.25,.44,.3,.17,.66-1.18-.3-.17-.26,.46s-.04,.03-.07,.02l-.63-.35s-.03-.04-.02-.06l.26-.46-.3-.17-.66,1.18,.3,.17,.25-.44Z"/>
    <path class="cls-1" d="M9.17,13.93l.31,.41-.42,.08-.06,.24,.63-.12,.19,.26,.37-.07-.9-1.21-.37,.07-.32,1.44,.24-.05,.23-1.04c.01-.07,.06-.07,.1-.02Z"/>
    <path class="cls-1" d="M12.87,12.28c-.23-.33-.7-.39-1.06-.14-.36,.25-.46,.71-.23,1.04,.23,.33,.7,.39,1.06,.14,.36-.25,.46-.71,.23-1.04Zm-.38,.83c-.19,.13-.47,.07-.61-.14-.15-.21-.11-.49,.08-.62,.19-.14,.47-.07,.61,.14,.15,.21,.11,.49-.08,.62Z"/>
  </g>
  <g>
    <path class="cls-1" d="M22.74,7.76c-.22,.26-1.15,1.39-1.35,1.62,.3,.35,.48,.57,.72,.9l-.66,.49c-.48-.76-1.1-1.56-2.15-2.27l.53-.55c.39,.29,.76,.6,1.11,.94,.24-.27,.97-1.14,1.44-1.96h-2.4c-.45,0-1.34,.03-2.09,.07v-.79c.66,.07,1.39,.08,2.06,.08h1.8c1.21,0,1.37-.05,1.66-.2l.6,.57c-.54,.26-1.06,.84-1.27,1.09Z"/>
    <path class="cls-1" d="M28.9,8.63h-1.73c-.1,0-1.23,0-1.99,.09v-.82c.57,.08,1.25,.09,1.99,.09h1.73c.66,0,1.33,0,1.99-.09v.82c-.66-.08-1.54-.09-1.99-.09Z"/>
    <path class="cls-1" d="M37.22,6.83c-.6,1.74-1.49,3.6-3.63,4.74l-.67-.54c.57-.25,1.45-.64,2.35-1.82,.85-1.12,1.05-2.03,1.15-2.49h-2.31c-.37,.57-.8,1.17-1.49,1.78l-.62-.44c.21-.17,.74-.57,1.33-1.46,.27-.42,.64-1.03,.73-1.46l.82,.36c.05,.02,.11,.05,.11,.11,0,.08-.09,.12-.12,.13-.1,.03-.13,.02-.22,.11s-.08,.12-.2,.31h1.19c.91,0,1.03-.05,1.23-.15l.56,.59c-.12,.13-.13,.14-.22,.23Z"/>
    <path class="cls-1" d="M42.68,11.22l-.57-.63c.45-.11,1.19-.3,1.68-.87,.45-.52,.57-1.23,.57-1.69,0-1.08-.8-1.59-1.17-1.77-.45-.23-.75-.22-1.03-.22-.13,.92-.31,2.27-.94,3.66-.14,.31-.52,1.12-.95,1.12-.29,0-.51-.14-.64-.26-.29-.23-.92-.9-.92-2.03,0-.55,.16-1.4,.82-2.08,1.05-1.07,2.04-1.07,2.48-1.07,.69,0,1.62,.12,2.37,.94,.45,.49,.68,1.14,.68,1.81,0,1.86-1.31,2.78-2.36,3.07Zm-1.41-5.09c-.64,.11-1.9,.89-1.9,2.42,0,.67,.42,1.38,.73,1.38,.26,0,.46-.45,.55-.66,.54-1.27,.77-2.53,.82-3.16-.07,0-.13,.01-.2,.02Z"/>
  </g>
  <g>
    <path class="cls-1" d="M50.9,10.3c.34-.35,.77-.79,1.05-1.11,.34-.39,.44-.89,.44-1.33v-2.74h2.45v-1.33h-7.49v1.33h3.11v2.74c0,.59-.15,1.04-.52,1.48-.23,.28-.53,.64-.86,.96h-2.33v1.33h8.67v-1.33h-4.53Z"/>
    <rect class="cls-1" x="65.5" y="6.66" width="6.74" height="1.33"/>
    <rect class="cls-1" x="85.74" y="6.66" width="6.74" height="1.33"/>
    <path class="cls-1" d="M93.89,9.3c-.1,.77-.69,.99-1.15,.99h-.61v1.33h1.17c1.35,0,2.38-1.01,2.52-2.33,.04-.32,.41-4.3,.53-5.53h-1.94c-.11,1.23-.49,5.21-.53,5.53Z"/>
    <path class="cls-1" d="M101,9.45c0,.42-.37,.67-.96,.67s-.81-.17-.81-.56V3.77h-1.93v6.55c0,.6,.16,1.29,1.07,1.29h2.06c.69,0,2.17-.54,2.17-1.94v-2.49h-1.6v2.26Z"/>
    <rect class="cls-1" x="76.55" y="3.77" width="1.67" height="3.59"/>
    <rect class="cls-1" x="79.51" y="3.77" width="1.67" height="3.59"/>
    <path class="cls-1" d="M82.7,3.77v4.34c0,1.21-.75,2.18-2.08,2.18h-2.99v1.33h3.43c2,0,3.57-1.49,3.57-3.26V3.77h-1.93Z"/>
    <path class="cls-1" d="M56.24,3.77v1.33h6.15v.92c0,.63-.36,1.23-1.63,1.45v-.81h-1.93v2.54c0,.62-.32,1.1-1.01,1.1h-1.28v1.33h2.26c1.13,0,1.96-.76,1.96-1.76v-1.3c.33-.04,.96-.1,1.59-.16,1.18-.11,2.08-.99,2.08-2.32V3.77h-8.19Z"/>
    <path class="cls-1" d="M74.97,7.34c0,.48-.39,.87-.87,.87s-.87-.39-.87-.87,.39-.87,.87-.87,.87,.39,.87,.87Z"/>
  </g>
</svg>