<?xml version="1.0" encoding="utf-8"?>
<!-- Generator: Adobe Illustrator 27.4.1, SVG Export Plug-In . SVG Version: 6.00 Build 0)  -->
<svg version="1.1" id="レイヤー_1" xmlns="http://www.w3.org/2000/svg" xmlns:xlink="http://www.w3.org/1999/xlink" x="0px"
	 y="0px" viewBox="0 0 699.5 88.6" style="enable-background:new 0 0 699.5 88.6;" xml:space="preserve">
<style type="text/css">
	.st0{fill:#007C36;}
</style>
<path class="st0" d="M106,1.8L91.1,87.2l-21.4-0.1l9.4-54.2l-24,53.5l0.1,0.8l-17.2-0.1l-7.7-51.7l-9,51.9L0,87.1L14.9,1.6l12.4,0.1
	l0-0.1l20.1,0.1l4.5,48.2L73.5,1.6l11.1,0.1l0-0.1L106,1.8z M234.5,65.1c0.2-4.2-0.5-8.1-4-10.6c-3.9-2.9-11.8-4.7-16.9-6
	c-11.1-2.9-12.6-5.1-12.4-8.4c0.2-3,3-4.1,6.6-4.7c2.4-0.4,9-0.6,9.3,5.7h18.6c-2.1-14.1-10.1-16.9-26.4-17.1
	c-17.7-0.2-32.4,10.8-31.4,23.4c0.9,12.3,12.8,12,22.2,14.4c7.2,1.8,13.2,4.5,11.7,9.3c-1.5,4.8-6.3,4.8-11.1,4.2
	c-4.8-0.6-5.1-3-6.6-5.7h-18.9c1.5,13.5,10.5,19.2,26,19.2c13.2,0,22.2-5.3,27-10.8C231.5,74.1,234.2,69.8,234.5,65.1z M170.4,41.9
	c-0.3,5.7-5.1,43.7-5.1,43.7h-19.2l-1.5-6.3C142,84.1,127,88,121.3,88c-5.7,0-8.9-0.6-13.5-4.8c-4.5-4.1-4.2-13.2-0.6-18.9
	c3.1-4.7,11.4-8.1,18.9-10.5c7.5-2.4,13.5-3.6,17.4-4.8c3.9-1.2,4.8-3,4.8-6.3c0-2.7-0.6-5.1-6-5.1c-9.3,0-10.8,4.5-13.2,9l-18-2.4
	c0-4.8,7.2-11.4,12.6-15c5.4-3.6,11.4-4.5,21.3-4.5s16.2,2.7,20.4,5.4C169.5,32.9,170.7,36.2,170.4,41.9z M146.5,61.4
	c-2-2.8-9.3-0.9-14.1,1.8c-4.8,2.7-9.3,6.9-5.7,11.4c3.6,4.5,10.8,2.7,15.9-0.9C147.6,70.1,148.4,64,146.5,61.4z M274,36.8l9.3-0.3
	l3.6-10.8l-11.4,0.2c1.3-10.1,2.6-19.2,3-22.3l-19.8,0.6c0,0-1.7,9.9-3.7,22l-8.9,0.1l-0.6,11.4l7.6-0.2c-2.3,14.1-4.6,28-4.9,30.8
	c-0.6,6,0.3,11.4,2.4,14.1c2.1,2.7,8.1,4.8,13.5,4.8c5.4,0,10.5,0.6,13.2-3.3l0.6-12.3c0,0-1.8-0.9-3.9-1.8
	c-2.1-0.9-4.2-4.5-3.3-9.3C271.1,58.3,272.5,48.1,274,36.8z M409.6,23.6l-3,19.8c-5.7-0.3-12,0-15.6,2.7c-3.6,2.7-6,8.7-7.5,13.8
	c-1.5,5.1-4.8,24.3-4.8,24.3h-20.1V76L348,75.7c-8.1,7.5-19.5,11.4-31.1,11.1c-11.7-0.3-27.5-5.7-27.8-24.9
	c-0.3-19.2,9.9-31.1,22.2-36.2c12.3-5.1,26.6-2.7,32.9,2.4c6.3,5.1,9.3,10.2,10.5,16.2c1.2,6,1.2,12.3,0,14.7l-44.3,1.2
	c-1.2,6.9,2.1,11.9,6.6,12.6c6.3,0.9,12.4-0.8,15.6-5.1c6.3,0,25.4,0.3,30.5,0.3c5.1,0,8.2-0.9,8.7-3.9c0.6-3.9-3.6-4.2-7.8-4.8
	l3.6-33.5h21.3V29C392.3,25.7,405.4,22.7,409.6,23.6z M312,48.8l21-0.6c0.9-3.6-2.4-10.5-9-10.5C316.5,37.7,313.5,43.1,312,48.8z
	 M549.3,24.8H529l-9.2,58.7h20.3L549.3,24.8z M552.6,0.1h-20.3l-2,13.7h20.3L552.6,0.1z M607.5,23.3c-7.4-3.7-19.6,0.8-29.6,7.3
	l0.9-5.8h-20.3l-9.2,58.7h20.3l5.9-34.6c1.6-7.5,7.3-9,11.5-8.8c3.5,0.2,8.1,3.3,7.5,9.3c-0.6,6-3,27.5-4.2,35h21.9
	c0,0,4.8-38.9,5.4-44.6C618.3,34.1,615.9,27.5,607.5,23.3z M506.3,24.2c-9.5-2.9-28.3-0.2-30.7,8.1c-1.6-3.4-4.8-6.5-10-8.1
	c-8.7-2.7-21.7,0.5-26.4,6.5c0,0,0.4-2.2,0.9-4.6c-2.9-2-8.9-2.2-12.9-2.2c-4,0-9.5,2.2-10.2,6.7c-0.4,2.8-8.4,53.1-8.4,53.1H431
	l5.4-34.5c0.6-5,5-9,10.1-9c5.1,0,8.1,3.3,7.5,9.3c-0.6,6-3,27.5-4.2,35h21.9c0,0,2.9-23.8,4.4-36.6c1.1-5.5,6-7.7,11.1-7.7
	c5.1,0,8.1,3.3,7.5,9.3c-0.6,6-3,27.5-4.2,35h21.9c0,0,4.8-38.9,5.4-44.6C518.3,34.1,515.3,27,506.3,24.2z M699.5,0l-13.4,85.1
	h-20.3l1.1-6.9c-3,2.8-7.5,4.7-12.2,5.9c-6,1.5-11.4,2.5-18.6-1.1c-6.2-3.1-10.9-11.8-10.9-25.1c0-9.1,3.3-17.7,7.1-23.5
	c4.9-7.5,14.9-14,23.5-14.2c7-0.2,13.7,2.2,19.1,7L679.1,0H699.5z M663.5,36.3c-5.8-1.3-12.4,5.1-14.4,12.6c-2,7.5,0,18.4,7.1,19.3
	c8.5,1.1,13.4-9.7,14.2-16.2C671.5,42.9,669,37.5,663.5,36.3z"/>
</svg>
